name C:\Users\u0101727\Documents\MyRepositories\upper-imu-dc\Results\main_tracking\Case_31\FLX01_linearAccelerations_bodyFrame.mot
datacolumns 4
datarows 129
range 5.01000000 6.29000000
endheader 
time	radius_imu_x	radius_imu_y	radius_imu_z	
          5.01000000	         -2.06321730	          3.55508936	         10.08876200	
          5.02000000	         -1.89699992	          3.62396509	         10.14347799	
          5.03000000	         -1.77361054	          3.66401266	         10.18241314	
          5.04000000	         -1.75483095	          3.68420362	         10.19138483	
          5.05000000	         -1.86840812	          3.70394052	         10.16231711	
          5.06000000	         -2.08988134	          3.74629094	         10.09712465	
          5.07000000	         -2.35146612	          3.82756226	         10.00580219	
          5.08000000	         -2.57220705	          3.94889993	          9.90035948	
          5.09000000	         -2.69233040	          4.09489129	          9.78899757	
          5.10000000	         -2.69140307	          4.24025051	          9.67422269	
          5.11000000	         -2.58218663	          4.36142923	          9.55514082	
          5.12000000	         -2.38742230	          4.44765117	          9.43165721	
          5.13000000	         -2.11991178	          4.50591369	          9.30737187	
          5.14000000	         -1.78561366	          4.55706626	          9.18874517	
          5.15000000	         -1.40424829	          4.62487163	          9.08145338	
          5.16000000	         -1.02027492	          4.72419779	          8.98784460	
          5.17000000	         -0.68575704	          4.85449110	          8.90848923	
          5.18000000	         -0.42657624	          5.00098483	          8.84632366	
          5.19000000	         -0.22198452	          5.14259538	          8.80873486	
          5.20000000	         -0.01222466	          5.26294411	          8.80553006	
          5.21000000	          0.27583235	          5.35890410	          8.84527062	
          5.22000000	          0.69986162	          5.44222107	          8.93275081	
          5.23000000	          1.27775280	          5.53421099	          9.06753332	
          5.24000000	          1.97291404	          5.65701870	          9.24208565	
          5.25000000	          2.69753680	          5.82574617	          9.44002925	
          5.26000000	          3.33914677	          6.04462674	          9.63725978	
          5.27000000	          3.79860802	          6.30753999	          9.80704528	
          5.28000000	          4.01851342	          6.60145508	          9.92628228	
          5.29000000	          3.99302571	          6.91186899	          9.97919603	
          5.30000000	          3.76103995	          7.22848578	          9.95696163	
          5.31000000	          3.38736391	          7.54823443	          9.85464189	
          5.32000000	          2.94067671	          7.87378016	          9.66868880	
          5.33000000	          2.47695356	          8.20879008	          9.39706603	
          5.34000000	          2.03193928	          8.55313004	          9.04139930	
          5.35000000	          1.62224232	          8.90064942	          8.60917365	
          5.36000000	          1.25105585	          9.24017889	          8.11433919	
          5.37000000	          0.91399068	          9.55837412	          7.57594130	
          5.38000000	          0.60310745	          9.84294341	          7.01569538	
          5.39000000	          0.30878307	         10.08490329	          6.45550528	
          5.40000000	          0.02102870	         10.27983968	          5.91461936	
          5.41000000	         -0.27362579	         10.42822811	          5.40747268	
          5.42000000	         -0.58647350	         10.53729286	          4.94426382	
          5.43000000	         -0.92598547	         10.62013115	          4.53049574	
          5.44000000	         -1.29158243	         10.69290886	          4.16801598	
          5.45000000	         -1.67388843	         10.76860847	          3.85419442	
          5.46000000	         -2.05939457	         10.85152774	          3.58191982	
          5.47000000	         -2.43379281	         10.93660052	          3.34073570	
          5.48000000	         -2.78780504	         11.01057908	          3.11662662	
          5.49000000	         -3.11800326	         11.05723397	          2.89409133	
          5.50000000	         -3.45085372	         11.04276562	          2.67018938	
          5.51000000	         -3.70624660	         11.04041462	          2.42754482	
          5.52000000	         -3.98977622	         10.90624061	          2.16379301	
          5.53000000	         -4.24257131	         10.78766937	          1.98829116	
          5.54000000	         -4.36956062	         10.72597862	          1.84050014	
          5.55000000	         -4.39543839	         10.60409432	          1.73484567	
          5.56000000	         -4.33881453	         10.51064413	          1.70018961	
          5.57000000	         -4.12621793	         10.48236989	          1.73437103	
          5.58000000	         -3.77028094	         10.51140021	          1.88405494	
          5.59000000	         -3.07848301	         10.64261848	          1.97127210	
          5.60000000	         -1.65892052	          9.83260605	          2.03226493	
          5.61000000	         -1.58571204	         10.68141131	          2.44155455	
          5.62000000	         -2.29635678	         10.70612017	          2.28099028	
          5.63000000	         -1.65162161	         10.66889762	          2.51015339	
          5.64000000	         -1.67752732	         10.58929004	          2.53759939	
          5.65000000	         -1.73571887	         10.54064877	          2.53721607	
          5.66000000	         -1.80057939	         10.47949716	          2.49628913	
          5.67000000	         -1.84442483	         10.43860770	          2.42815224	
          5.68000000	         -1.83775819	         10.42794789	          2.33372675	
          5.69000000	         -1.76339921	         10.45134674	          2.20996395	
          5.70000000	         -1.61696920	         10.50236250	          2.05053451	
          5.71000000	         -1.40735100	         10.56967598	          1.84973363	
          5.72000000	         -1.15398573	         10.64243641	          1.60519662	
          5.73000000	         -0.88411734	         10.71433894	          1.31954804	
          5.74000000	         -0.63117273	         10.78431170	          1.00091200	
          5.75000000	         -0.43393977	         10.85403334	          0.66289644	
          5.76000000	         -0.33491939	         10.92407581	          0.32445332	
          5.77000000	         -0.37260987	         10.99143803	          0.00961346	
          5.78000000	         -0.57788748	         11.04749020	         -0.25592128	
          5.79000000	         -0.92802164	         11.08555633	         -0.44617746	
          5.80000000	         -1.48174146	         11.08509347	         -0.55996674	
          5.81000000	         -1.77682420	         11.04254152	         -0.57428773	
          5.82000000	         -2.00446870	         11.01149979	         -0.52521810	
          5.83000000	         -2.69591255	         10.89906838	         -0.52343397	
          5.84000000	         -3.30424195	         10.77518290	         -0.46850026	
          5.85000000	         -3.88775903	         10.62547141	         -0.40303258	
          5.86000000	         -4.37058154	         10.47101542	         -0.33817195	
          5.87000000	         -4.70950714	         10.33231691	         -0.28529363	
          5.88000000	         -4.89136956	         10.22785830	         -0.24749141	
          5.89000000	         -4.95230912	         10.16467530	         -0.22184679	
          5.90000000	         -4.96326748	         10.13635832	         -0.20358987	
          5.91000000	         -5.00037437	         10.12728749	         -0.18925184	
          5.92000000	         -5.10946349	         10.11972836	         -0.17627715	
          5.93000000	         -5.29416566	         10.10093347	         -0.16309161	
          5.94000000	         -5.53225395	         10.06536253	         -0.14914626	
          5.95000000	         -5.79409547	         10.01255289	         -0.13521208	
          5.96000000	         -6.05430811	          9.94469021	         -0.12354570	
          5.97000000	         -6.29611461	          9.86505934	         -0.11725320	
          5.98000000	         -6.51063954	          9.77833842	         -0.11898860	
          5.99000000	         -6.68627513	          9.69230446	         -0.13224753	
          6.00000000	         -6.81078772	          9.62595280	         -0.15915292	
          6.01000000	         -6.80117943	          9.58681127	         -0.21054468	
          6.02000000	         -6.78792488	          9.57584636	         -0.23264832	
          6.03000000	         -6.64698947	          9.49286707	         -0.23300877	
          6.04000000	         -6.28034588	          9.59507074	         -0.23704104	
          6.05000000	         -5.58798822	          9.67394893	         -0.26077136	
          6.06000000	         -5.16312097	          9.58847249	         -0.28550692	
          6.07000000	         -4.68203956	          9.60152196	         -0.38987175	
          6.08000000	         -3.09916286	          9.71325207	         -0.85226992	
          6.09000000	         -2.31043292	          9.86464646	         -0.92838827	
          6.10000000	         -2.32764304	          9.82318925	         -0.67973763	
          6.11000000	         -2.04347086	          9.70434738	         -0.42149777	
          6.12000000	         -1.78827325	          9.61478564	         -0.07897863	
          6.13000000	         -1.72209001	          9.54292237	          0.32665983	
          6.14000000	         -1.81709814	          9.48350935	          0.77236467	
          6.15000000	         -1.97948545	          9.44512135	          1.23181352	
          6.16000000	         -2.15218097	          9.43752178	          1.67610616	
          6.17000000	         -2.28545104	          9.45372881	          2.07266883	
          6.18000000	         -2.36567350	          9.47876029	          2.39066255	
          6.19000000	         -2.39963037	          9.49805561	          2.61324620	
          6.20000000	         -2.39758361	          9.50206571	          2.73856975	
          6.21000000	         -2.37201453	          9.48946795	          2.78140313	
          6.22000000	         -2.32183777	          9.46490933	          2.76655329	
          6.23000000	         -2.24682118	          9.43306955	          2.72466359	
          6.24000000	         -2.15944038	          9.39262871	          2.68272758	
          6.25000000	         -2.08728390	          9.34110832	          2.64822364	
          6.26000000	         -2.02022973	          9.28607262	          2.57311718	
          6.27000000	         -1.85188650	          9.29466159	          2.36898340	
          6.28000000	         -0.93706883	          9.19892254	          1.85719485	
          6.29000000	         -0.82081541	          9.28408299	          1.67557804	
